<svg xmlns="http://www.w3.org/2000/svg" xmlns:xlink="http://www.w3.org/1999/xlink" width="327" zoomAndPan="magnify" viewBox="0 0 245.25 113.999999" height="152" preserveAspectRatio="xMidYMid meet" version="1.0"><defs><g/><clipPath id="a8c51d45e8"><path d="M 37 13 L 115 13 L 115 66 L 37 66 Z M 37 13 " clip-rule="nonzero"/></clipPath><clipPath id="e0b444c782"><path d="M 113.40625 66.949219 L 35.429688 49.035156 L 46.648438 0.210938 L 124.625 18.125 Z M 113.40625 66.949219 " clip-rule="nonzero"/></clipPath><clipPath id="61f251cfad"><path d="M 113.40625 66.949219 L 35.429688 49.035156 L 46.648438 0.210938 L 124.625 18.125 Z M 113.40625 66.949219 " clip-rule="nonzero"/></clipPath><clipPath id="f4f1f7d217"><path d="M 113.40625 66.949219 L 35.429688 49.035156 L 46.648438 0.210938 L 124.625 18.125 Z M 113.40625 66.949219 " clip-rule="nonzero"/></clipPath><clipPath id="31c433770a"><path d="M 106.984375 50.800781 C 107.070312 52.054688 107.042969 49.546875 106.984375 50.800781 C 107.21875 55.277344 106.597656 65.386719 112.320312 65.597656 C 116.828125 51.957031 113.773438 36.332031 103.070312 25.347656 C 87.777344 9.660156 62.679688 9.371094 47.007812 24.707031 C 43.09375 28.53125 40.140625 32.96875 38.148438 37.71875 L 37.925781 38.265625 C 39.753906 37.617188 42.949219 36.660156 47.152344 36.070312 C 54.878906 34.988281 66.421875 39.277344 78.640625 45.246094 C 102.347656 56.828125 102.121094 43.105469 92.566406 32.761719 C 86.933594 26.671875 71.542969 18.175781 57.691406 25.515625 C 70.308594 17.695312 87.074219 19.371094 97.863281 30.441406 C 103.4375 36.15625 106.46875 43.410156 106.984375 50.800781 Z M 106.984375 50.800781 " clip-rule="nonzero"/></clipPath><linearGradient x1="-113.984182" gradientTransform="matrix(0.024643, 0.0102123, -0.0102155, 0.0246974, 49.024067, -9.502058)" y1="1059.93506" x2="3425.008015" gradientUnits="userSpaceOnUse" y2="1059.93506" id="41e9c27587"><stop stop-opacity="1" stop-color="rgb(54.499817%, 77.2995%, 24.699402%)" offset="0"/><stop stop-opacity="1" stop-color="rgb(54.3396%, 77.264404%, 24.719238%)" offset="0.125"/><stop stop-opacity="1" stop-color="rgb(54.026794%, 77.197266%, 24.760437%)" offset="0.132813"/><stop stop-opacity="1" stop-color="rgb(53.720093%, 77.130127%, 24.80011%)" offset="0.140625"/><stop stop-opacity="1" stop-color="rgb(53.413391%, 77.064514%, 24.841309%)" offset="0.148438"/><stop stop-opacity="1" stop-color="rgb(53.106689%, 76.998901%, 24.880981%)" offset="0.15625"/><stop stop-opacity="1" stop-color="rgb(52.799988%, 76.931763%, 24.920654%)" offset="0.164062"/><stop stop-opacity="1" stop-color="rgb(52.494812%, 76.86615%, 24.960327%)" offset="0.171875"/><stop stop-opacity="1" stop-color="rgb(52.18811%, 76.800537%, 25.001526%)" offset="0.179688"/><stop stop-opacity="1" stop-color="rgb(51.881409%, 76.733398%, 25.041199%)" offset="0.1875"/><stop stop-opacity="1" stop-color="rgb(51.574707%, 76.667786%, 25.080872%)" offset="0.195313"/><stop stop-opacity="1" stop-color="rgb(51.269531%, 76.602173%, 25.120544%)" offset="0.203125"/><stop stop-opacity="1" stop-color="rgb(50.96283%, 76.535034%, 25.161743%)" offset="0.210938"/><stop stop-opacity="1" stop-color="rgb(50.656128%, 76.469421%, 25.201416%)" offset="0.21875"/><stop stop-opacity="1" stop-color="rgb(50.349426%, 76.403809%, 25.241089%)" offset="0.226562"/><stop stop-opacity="1" stop-color="rgb(50.042725%, 76.33667%, 25.280762%)" offset="0.234375"/><stop stop-opacity="1" stop-color="rgb(49.737549%, 76.271057%, 25.32196%)" offset="0.242188"/><stop stop-opacity="1" stop-color="rgb(49.430847%, 76.205444%, 25.361633%)" offset="0.25"/><stop stop-opacity="1" stop-color="rgb(49.124146%, 76.138306%, 25.401306%)" offset="0.257812"/><stop stop-opacity="1" stop-color="rgb(48.817444%, 76.072693%, 25.440979%)" offset="0.265625"/><stop stop-opacity="1" stop-color="rgb(48.510742%, 76.00708%, 25.482178%)" offset="0.273438"/><stop stop-opacity="1" stop-color="rgb(48.205566%, 75.939941%, 25.521851%)" offset="0.28125"/><stop stop-opacity="1" stop-color="rgb(47.898865%, 75.874329%, 25.561523%)" offset="0.289063"/><stop stop-opacity="1" stop-color="rgb(47.592163%, 75.808716%, 25.601196%)" offset="0.296875"/><stop stop-opacity="1" stop-color="rgb(47.285461%, 75.741577%, 25.642395%)" offset="0.304688"/><stop stop-opacity="1" stop-color="rgb(46.980286%, 75.675964%, 25.682068%)" offset="0.3125"/><stop stop-opacity="1" stop-color="rgb(46.673584%, 75.610352%, 25.721741%)" offset="0.320312"/><stop stop-opacity="1" stop-color="rgb(46.366882%, 75.543213%, 25.761414%)" offset="0.328125"/><stop stop-opacity="1" stop-color="rgb(46.060181%, 75.4776%, 25.802612%)" offset="0.335938"/><stop stop-opacity="1" stop-color="rgb(45.753479%, 75.411987%, 25.842285%)" offset="0.34375"/><stop stop-opacity="1" stop-color="rgb(45.448303%, 75.344849%, 25.881958%)" offset="0.351562"/><stop stop-opacity="1" stop-color="rgb(45.141602%, 75.279236%, 25.921631%)" offset="0.359375"/><stop stop-opacity="1" stop-color="rgb(44.8349%, 75.213623%, 25.96283%)" offset="0.367188"/><stop stop-opacity="1" stop-color="rgb(44.528198%, 75.146484%, 26.002502%)" offset="0.375"/><stop stop-opacity="1" stop-color="rgb(44.221497%, 75.080872%, 26.042175%)" offset="0.382812"/><stop stop-opacity="1" stop-color="rgb(43.916321%, 75.015259%, 26.081848%)" offset="0.390625"/><stop stop-opacity="1" stop-color="rgb(43.609619%, 74.94812%, 26.121521%)" offset="0.398438"/><stop stop-opacity="1" stop-color="rgb(43.302917%, 74.882507%, 26.16272%)" offset="0.40625"/><stop stop-opacity="1" stop-color="rgb(42.996216%, 74.816895%, 26.202393%)" offset="0.414063"/><stop stop-opacity="1" stop-color="rgb(42.69104%, 74.749756%, 26.242065%)" offset="0.421875"/><stop stop-opacity="1" stop-color="rgb(42.384338%, 74.684143%, 26.281738%)" offset="0.429688"/><stop stop-opacity="1" stop-color="rgb(42.077637%, 74.61853%, 26.322937%)" offset="0.4375"/><stop stop-opacity="1" stop-color="rgb(41.770935%, 74.551392%, 26.36261%)" offset="0.445313"/><stop stop-opacity="1" stop-color="rgb(41.464233%, 74.485779%, 26.402283%)" offset="0.453125"/><stop stop-opacity="1" stop-color="rgb(41.159058%, 74.420166%, 26.441956%)" offset="0.460938"/><stop stop-opacity="1" stop-color="rgb(40.852356%, 74.353027%, 26.483154%)" offset="0.46875"/><stop stop-opacity="1" stop-color="rgb(40.545654%, 74.287415%, 26.522827%)" offset="0.476562"/><stop stop-opacity="1" stop-color="rgb(40.238953%, 74.221802%, 26.5625%)" offset="0.484375"/><stop stop-opacity="1" stop-color="rgb(39.932251%, 74.154663%, 26.602173%)" offset="0.492188"/><stop stop-opacity="1" stop-color="rgb(39.627075%, 74.08905%, 26.643372%)" offset="0.5"/><stop stop-opacity="1" stop-color="rgb(39.320374%, 74.023438%, 26.683044%)" offset="0.507812"/><stop stop-opacity="1" stop-color="rgb(39.013672%, 73.956299%, 26.722717%)" offset="0.515625"/><stop stop-opacity="1" stop-color="rgb(38.70697%, 73.890686%, 26.76239%)" offset="0.523438"/><stop stop-opacity="1" stop-color="rgb(38.400269%, 73.825073%, 26.803589%)" offset="0.53125"/><stop stop-opacity="1" stop-color="rgb(38.095093%, 73.757935%, 26.843262%)" offset="0.539063"/><stop stop-opacity="1" stop-color="rgb(37.788391%, 73.692322%, 26.882935%)" offset="0.546875"/><stop stop-opacity="1" stop-color="rgb(37.481689%, 73.626709%, 26.922607%)" offset="0.554688"/><stop stop-opacity="1" stop-color="rgb(37.174988%, 73.55957%, 26.963806%)" offset="0.5625"/><stop stop-opacity="1" stop-color="rgb(36.869812%, 73.493958%, 27.003479%)" offset="0.570313"/><stop stop-opacity="1" stop-color="rgb(36.56311%, 73.428345%, 27.043152%)" offset="0.578125"/><stop stop-opacity="1" stop-color="rgb(36.256409%, 73.361206%, 27.082825%)" offset="0.585938"/><stop stop-opacity="1" stop-color="rgb(35.949707%, 73.295593%, 27.124023%)" offset="0.59375"/><stop stop-opacity="1" stop-color="rgb(35.643005%, 73.22998%, 27.163696%)" offset="0.601562"/><stop stop-opacity="1" stop-color="rgb(35.33783%, 73.162842%, 27.203369%)" offset="0.609375"/><stop stop-opacity="1" stop-color="rgb(35.031128%, 73.097229%, 27.243042%)" offset="0.617188"/><stop stop-opacity="1" stop-color="rgb(34.724426%, 73.031616%, 27.284241%)" offset="0.625"/><stop stop-opacity="1" stop-color="rgb(34.417725%, 72.966003%, 27.323914%)" offset="0.632813"/><stop stop-opacity="1" stop-color="rgb(34.111023%, 72.898865%, 27.363586%)" offset="0.640625"/><stop stop-opacity="1" stop-color="rgb(33.805847%, 72.833252%, 27.403259%)" offset="0.648438"/><stop stop-opacity="1" stop-color="rgb(33.499146%, 72.767639%, 27.442932%)" offset="0.65625"/><stop stop-opacity="1" stop-color="rgb(33.192444%, 72.7005%, 27.484131%)" offset="0.664063"/><stop stop-opacity="1" stop-color="rgb(32.885742%, 72.634888%, 27.523804%)" offset="0.671875"/><stop stop-opacity="1" stop-color="rgb(32.580566%, 72.569275%, 27.563477%)" offset="0.679688"/><stop stop-opacity="1" stop-color="rgb(32.273865%, 72.502136%, 27.603149%)" offset="0.6875"/><stop stop-opacity="1" stop-color="rgb(31.967163%, 72.436523%, 27.644348%)" offset="0.695312"/><stop stop-opacity="1" stop-color="rgb(31.660461%, 72.370911%, 27.684021%)" offset="0.703125"/><stop stop-opacity="1" stop-color="rgb(31.35376%, 72.303772%, 27.723694%)" offset="0.710938"/><stop stop-opacity="1" stop-color="rgb(31.048584%, 72.238159%, 27.763367%)" offset="0.71875"/><stop stop-opacity="1" stop-color="rgb(30.741882%, 72.172546%, 27.804565%)" offset="0.726563"/><stop stop-opacity="1" stop-color="rgb(30.435181%, 72.105408%, 27.844238%)" offset="0.734375"/><stop stop-opacity="1" stop-color="rgb(30.128479%, 72.039795%, 27.883911%)" offset="0.742188"/><stop stop-opacity="1" stop-color="rgb(29.821777%, 71.974182%, 27.923584%)" offset="0.75"/><stop stop-opacity="1" stop-color="rgb(29.516602%, 71.907043%, 27.964783%)" offset="0.757813"/><stop stop-opacity="1" stop-color="rgb(29.2099%, 71.841431%, 28.004456%)" offset="0.765625"/><stop stop-opacity="1" stop-color="rgb(28.903198%, 71.775818%, 28.044128%)" offset="0.773438"/><stop stop-opacity="1" stop-color="rgb(28.596497%, 71.708679%, 28.083801%)" offset="0.78125"/><stop stop-opacity="1" stop-color="rgb(28.291321%, 71.643066%, 28.125%)" offset="0.789062"/><stop stop-opacity="1" stop-color="rgb(27.984619%, 71.577454%, 28.164673%)" offset="0.796875"/><stop stop-opacity="1" stop-color="rgb(27.677917%, 71.510315%, 28.204346%)" offset="0.804688"/><stop stop-opacity="1" stop-color="rgb(27.371216%, 71.444702%, 28.244019%)" offset="0.8125"/><stop stop-opacity="1" stop-color="rgb(27.064514%, 71.379089%, 28.285217%)" offset="0.820313"/><stop stop-opacity="1" stop-color="rgb(26.759338%, 71.311951%, 28.32489%)" offset="0.828125"/><stop stop-opacity="1" stop-color="rgb(26.452637%, 71.246338%, 28.364563%)" offset="0.835938"/><stop stop-opacity="1" stop-color="rgb(26.145935%, 71.180725%, 28.404236%)" offset="0.84375"/><stop stop-opacity="1" stop-color="rgb(25.839233%, 71.113586%, 28.445435%)" offset="0.851563"/><stop stop-opacity="1" stop-color="rgb(25.532532%, 71.047974%, 28.485107%)" offset="0.859375"/><stop stop-opacity="1" stop-color="rgb(25.227356%, 70.982361%, 28.52478%)" offset="0.867188"/><stop stop-opacity="1" stop-color="rgb(24.920654%, 70.915222%, 28.564453%)" offset="0.875"/><stop stop-opacity="1" stop-color="rgb(24.613953%, 70.849609%, 28.605652%)" offset="0.882812"/><stop stop-opacity="1" stop-color="rgb(24.307251%, 70.783997%, 28.645325%)" offset="0.890625"/><stop stop-opacity="1" stop-color="rgb(24.002075%, 70.716858%, 28.684998%)" offset="0.898438"/><stop stop-opacity="1" stop-color="rgb(23.695374%, 70.651245%, 28.72467%)" offset="0.90625"/><stop stop-opacity="1" stop-color="rgb(23.388672%, 70.585632%, 28.765869%)" offset="0.914063"/><stop stop-opacity="1" stop-color="rgb(23.08197%, 70.518494%, 28.805542%)" offset="0.921875"/><stop stop-opacity="1" stop-color="rgb(22.775269%, 70.452881%, 28.845215%)" offset="0.929688"/><stop stop-opacity="1" stop-color="rgb(22.470093%, 70.387268%, 28.884888%)" offset="0.9375"/><stop stop-opacity="1" stop-color="rgb(22.163391%, 70.320129%, 28.924561%)" offset="0.945312"/><stop stop-opacity="1" stop-color="rgb(21.856689%, 70.254517%, 28.965759%)" offset="0.953125"/><stop stop-opacity="1" stop-color="rgb(21.650696%, 70.210266%, 28.991699%)" offset="0.96875"/><stop stop-opacity="1" stop-color="rgb(21.598816%, 70.199585%, 28.999329%)" offset="1"/></linearGradient></defs><g clip-path="url(#a8c51d45e8)"><g clip-path="url(#e0b444c782)"><g clip-path="url(#61f251cfad)"><g clip-path="url(#f4f1f7d217)"><g clip-path="url(#31c433770a)"><path fill="url(#41e9c27587)" d="M 49.472656 -18.539062 L 18.074219 57.371094 L 105.285156 93.511719 L 136.683594 17.601562 Z M 49.472656 -18.539062 " fill-rule="nonzero"/></g></g></g></g></g><g fill="#43b647" fill-opacity="1"><g transform="translate(105.15508, 83.187309)"><g><path d="M 2.191406 0 L 9.011719 0 L 9.011719 -11.960938 L 20.617188 -11.960938 L 20.617188 0 L 27.433594 0 L 27.433594 -28.390625 L 20.617188 -28.390625 L 20.617188 -17.425781 L 9.011719 -17.425781 L 9.011719 -28.390625 L 2.191406 -28.390625 Z M 2.191406 0 "/></g></g></g><g fill="#43b647" fill-opacity="1"><g transform="translate(133.465548, 83.187309)"><g><path d="M 13.117188 0.796875 C 17.503906 0.796875 21.332031 -1.078125 22.96875 -3.789062 L 19.5 -6.460938 C 18.304688 -4.824219 15.910156 -3.667969 13.359375 -3.667969 C 10.007812 -3.667969 7.535156 -5.582031 7.175781 -8.535156 L 22.25 -8.535156 C 22.410156 -9.171875 22.53125 -10.046875 22.53125 -10.847656 C 22.488281 -16.988281 18.304688 -21.214844 11.921875 -21.214844 C 5.382812 -21.214844 0.878906 -16.789062 0.917969 -10.328125 C 0.917969 -3.75 5.941406 0.796875 13.117188 0.796875 Z M 7.136719 -12.042969 C 7.496094 -14.914062 9.371094 -16.867188 11.921875 -16.867188 C 14.433594 -16.867188 16.148438 -15.074219 16.347656 -12.042969 Z M 7.136719 -12.042969 "/></g></g></g><g fill="#43b647" fill-opacity="1"><g transform="translate(155.874654, 83.187309)"><g><path d="M 7.894531 0.597656 C 11.324219 0.597656 13.996094 -1.078125 15.3125 -3.507812 L 15.351562 -3.507812 L 15.433594 -2.792969 C 15.710938 -0.917969 17.625 0.597656 20.097656 0.597656 C 21.972656 0.597656 24.085938 -0.0390625 25.320312 -1.277344 L 23.886719 -4.507812 C 23.445312 -3.949219 22.808594 -3.589844 22.289062 -3.589844 C 21.652344 -3.589844 21.253906 -4.148438 21.253906 -5.0625 L 21.253906 -12.960938 C 21.253906 -18.0625 17.386719 -21.214844 11.40625 -21.214844 C 5.542969 -21.214844 1.59375 -18.144531 1.234375 -13.917969 L 7.175781 -13 C 7.378906 -15.03125 9.089844 -16.789062 11.5625 -16.789062 C 13.757812 -16.789062 15.273438 -15.632812 15.273438 -13.875 C 15.273438 -13.039062 14.632812 -12.480469 13.675781 -12.402344 L 9.730469 -11.921875 C 3.628906 -11.285156 0.597656 -8.734375 0.597656 -5.222656 C 0.597656 -1.714844 3.628906 0.597656 7.894531 0.597656 Z M 10.207031 -3.589844 C 8.175781 -3.589844 6.699219 -4.546875 6.699219 -5.941406 C 6.699219 -7.257812 7.855469 -8.335938 11.246094 -8.734375 L 15.152344 -9.171875 L 15.152344 -8.335938 C 15.152344 -5.582031 13.078125 -3.589844 10.207031 -3.589844 Z M 10.207031 -3.589844 "/></g></g></g><g fill="#43b647" fill-opacity="1"><g transform="translate(179.878716, 83.187309)"><g><path d="M 1.59375 0 L 7.695312 0 L 7.695312 -29.585938 L 1.59375 -29.585938 Z M 1.59375 0 "/></g></g></g><g fill="#43b647" fill-opacity="1"><g transform="translate(187.8534, 83.187309)"><g><path d="M 11.960938 0.796875 C 14.914062 0.796875 17.863281 -0.597656 19.300781 -2.910156 L 17.464844 -6.738281 C 16.507812 -4.984375 15.152344 -4.105469 13.320312 -4.105469 C 11.523438 -4.105469 10.128906 -5.464844 10.128906 -7.695312 L 10.128906 -15.789062 L 18.222656 -15.789062 L 18.222656 -20.417969 L 10.128906 -20.417969 L 10.128906 -27.355469 L 4.027344 -26.039062 L 4.027344 -20.417969 L 0.199219 -20.417969 L 0.199219 -15.789062 L 4.027344 -15.789062 L 4.027344 -6.738281 C 4.027344 -2.113281 7.058594 0.796875 11.960938 0.796875 Z M 11.960938 0.796875 "/></g></g></g><g fill="#43b647" fill-opacity="1"><g transform="translate(206.314975, 83.187309)"><g><path d="M 1.59375 0 L 7.695312 0 L 7.695312 -11.285156 C 7.695312 -14.074219 9.53125 -15.949219 12.160156 -15.949219 C 14.277344 -15.949219 15.589844 -14.515625 15.589844 -12.203125 L 15.589844 0 L 21.691406 0 L 21.691406 -14.074219 C 21.691406 -18.421875 19.140625 -21.015625 14.953125 -21.015625 C 11.722656 -21.015625 9.210938 -19.460938 7.734375 -16.707031 L 7.695312 -16.707031 L 7.695312 -29.585938 L 1.59375 -29.585938 Z M 1.59375 0 "/></g></g></g><g fill="#969696" fill-opacity="1"><g transform="translate(14.902569, 83.187302)"><g><path d="M 14.953125 -21.015625 C 11.722656 -21.015625 9.171875 -19.460938 7.695312 -16.707031 L 7.65625 -16.707031 L 6.738281 -20.417969 L 1.59375 -20.417969 L 1.59375 0 L 7.695312 0 L 7.695312 -11.285156 C 7.695312 -14.074219 9.53125 -15.949219 12.160156 -15.949219 C 14.277344 -15.949219 15.589844 -14.515625 15.589844 -12.203125 L 15.589844 0 L 21.691406 0 L 21.691406 -14.074219 C 21.691406 -18.421875 19.140625 -21.015625 14.953125 -21.015625 Z M 14.953125 -21.015625 "/></g></g></g><g fill="#969696" fill-opacity="1"><g transform="translate(36.753442, 83.187302)"><g><path d="M 8.214844 0.597656 C 11.445312 0.597656 13.996094 -0.957031 15.472656 -3.707031 L 15.511719 -3.707031 L 16.429688 0 L 21.574219 0 L 21.574219 -20.417969 L 15.472656 -20.417969 L 15.472656 -9.132812 C 15.472656 -6.339844 13.636719 -4.464844 11.003906 -4.464844 C 8.890625 -4.464844 7.578125 -5.902344 7.578125 -8.214844 L 7.578125 -20.417969 L 1.476562 -20.417969 L 1.476562 -6.339844 C 1.476562 -1.992188 4.027344 0.597656 8.214844 0.597656 Z M 8.214844 0.597656 "/></g></g></g><g fill="#969696" fill-opacity="1"><g transform="translate(58.644179, 83.187302)"><g><path d="M 11.960938 0.796875 C 14.914062 0.796875 17.863281 -0.597656 19.300781 -2.910156 L 17.464844 -6.738281 C 16.507812 -4.984375 15.152344 -4.105469 13.320312 -4.105469 C 11.523438 -4.105469 10.128906 -5.464844 10.128906 -7.695312 L 10.128906 -15.789062 L 18.222656 -15.789062 L 18.222656 -20.417969 L 10.128906 -20.417969 L 10.128906 -27.355469 L 4.027344 -26.039062 L 4.027344 -20.417969 L 0.199219 -20.417969 L 0.199219 -15.789062 L 4.027344 -15.789062 L 4.027344 -6.738281 C 4.027344 -2.113281 7.058594 0.796875 11.960938 0.796875 Z M 11.960938 0.796875 "/></g></g></g><g fill="#969696" fill-opacity="1"><g transform="translate(77.105755, 83.187302)"><g><path d="M 13.160156 -21.054688 C 10.648438 -21.054688 8.535156 -19.578125 7.417969 -17.105469 L 7.378906 -17.105469 L 6.460938 -20.417969 L 1.59375 -20.417969 L 1.59375 0 L 7.695312 0 L 7.695312 -11.125 C 7.695312 -14.476562 9.089844 -16.46875 11.363281 -16.46875 C 13.117188 -16.46875 14.277344 -15.03125 14.476562 -12.519531 L 19.617188 -13.917969 C 19.140625 -18.460938 16.707031 -21.054688 13.160156 -21.054688 Z M 13.160156 -21.054688 "/></g></g></g><g fill="#969696" fill-opacity="1"><g transform="translate(96.005935, 83.187302)"><g><path d="M 4.785156 -23.207031 C 6.9375 -23.207031 8.414062 -24.601562 8.414062 -26.675781 C 8.414062 -28.789062 6.9375 -30.1875 4.785156 -30.1875 C 2.632812 -30.1875 1.195312 -28.789062 1.195312 -26.675781 C 1.195312 -24.601562 2.632812 -23.207031 4.785156 -23.207031 Z M 1.753906 0 L 7.816406 0 L 7.816406 -20.417969 L 1.753906 -20.417969 Z M 1.753906 0 "/></g></g></g></svg>